<svg width="354" height="125" viewBox="0 0 354 125" fill="none" xmlns="http://www.w3.org/2000/svg">
<path d="M9.8 100V30H38.3C42.1 30 45.5333 30.9667 48.6 32.9C51.7333 34.7667 54.2333 37.3333 56.1 40.6C57.9667 43.8667 58.9 47.5 58.9 51.5C58.9 55.5 57.9667 59.1333 56.1 62.4C54.2333 65.6667 51.7333 68.3 48.6 70.3C45.5333 72.2333 42.1 73.2 38.3 73.2H20.6V100H9.8ZM20.6 62.8H38.1C39.9 62.8 41.5333 62.3 43 61.3C44.4667 60.2333 45.6333 58.8667 46.5 57.2C47.4333 55.4667 47.9 53.5667 47.9 51.5C47.9 49.4333 47.4333 47.5667 46.5 45.9C45.6333 44.2333 44.4667 42.9 43 41.9C41.5333 40.9 39.9 40.4 38.1 40.4H20.6V62.8ZM93.2023 101C88.069 101 83.469 99.8333 79.4023 97.5C75.4023 95.1 72.2357 91.8667 69.9023 87.8C67.569 83.6667 66.4023 78.9667 66.4023 73.7C66.4023 68.4333 67.569 63.7667 69.9023 59.7C72.2357 55.5667 75.4023 52.3333 79.4023 50C83.469 47.6 88.069 46.4 93.2023 46.4C98.269 46.4 102.802 47.6 106.802 50C110.869 52.3333 114.069 55.5667 116.402 59.7C118.736 63.7667 119.902 68.4333 119.902 73.7C119.902 78.9667 118.736 83.6667 116.402 87.8C114.069 91.8667 110.869 95.1 106.802 97.5C102.802 99.8333 98.269 101 93.2023 101ZM93.2023 91.6C96.3357 91.6 99.1357 90.8333 101.602 89.3C104.069 87.7 106.002 85.5667 107.402 82.9C108.802 80.1667 109.469 77.1 109.402 73.7C109.469 70.2333 108.802 67.1667 107.402 64.5C106.002 61.7667 104.069 59.6333 101.602 58.1C99.1357 56.5667 96.3357 55.8 93.2023 55.8C90.069 55.8 87.2357 56.6 84.7023 58.2C82.2357 59.7333 80.3023 61.8667 78.9023 64.6C77.5023 67.2667 76.8357 70.3 76.9023 73.7C76.8357 77.1 77.5023 80.1667 78.9023 82.9C80.3023 85.5667 82.2357 87.7 84.7023 89.3C87.2357 90.8333 90.069 91.6 93.2023 91.6ZM137.626 100V34.1H147.926V100H137.626ZM126.726 57.5V47.5H160.126V57.5H126.726ZM189.216 101C184.883 101 180.916 99.8 177.316 97.4C173.783 95 170.95 91.7333 168.816 87.6C166.683 83.4667 165.616 78.8 165.616 73.6C165.616 68.3333 166.683 63.6667 168.816 59.6C171.016 55.4667 173.95 52.2333 177.616 49.9C181.35 47.5667 185.516 46.4 190.116 46.4C192.85 46.4 195.35 46.8 197.616 47.6C199.883 48.4 201.85 49.5333 203.516 51C205.25 52.4 206.65 54.0333 207.716 55.9C208.85 57.7667 209.55 59.7667 209.816 61.9L207.516 61.1V47.5H217.916V100H207.516V87.5L209.916 86.8C209.516 88.6 208.683 90.3667 207.416 92.1C206.216 93.7667 204.65 95.2667 202.716 96.6C200.85 97.9333 198.75 99 196.416 99.8C194.15 100.6 191.75 101 189.216 101ZM191.916 91.5C195.05 91.5 197.816 90.7333 200.216 89.2C202.616 87.6667 204.483 85.5667 205.816 82.9C207.216 80.1667 207.916 77.0667 207.916 73.6C207.916 70.2 207.216 67.1667 205.816 64.5C204.483 61.8333 202.616 59.7333 200.216 58.2C197.816 56.6667 195.05 55.9 191.916 55.9C188.85 55.9 186.116 56.6667 183.716 58.2C181.383 59.7333 179.516 61.8333 178.116 64.5C176.783 67.1667 176.116 70.2 176.116 73.6C176.116 77.0667 176.783 80.1667 178.116 82.9C179.516 85.5667 181.383 87.6667 183.716 89.2C186.116 90.7333 188.85 91.5 191.916 91.5ZM238.798 100V34.1H249.098V100H238.798ZM227.898 57.5V47.5H261.298V57.5H227.898ZM293.788 101C288.655 101 284.055 99.8333 279.988 97.5C275.988 95.1 272.822 91.8667 270.488 87.8C268.155 83.6667 266.988 78.9667 266.988 73.7C266.988 68.4333 268.155 63.7667 270.488 59.7C272.822 55.5667 275.988 52.3333 279.988 50C284.055 47.6 288.655 46.4 293.788 46.4C298.855 46.4 303.388 47.6 307.388 50C311.455 52.3333 314.655 55.5667 316.988 59.7C319.322 63.7667 320.488 68.4333 320.488 73.7C320.488 78.9667 319.322 83.6667 316.988 87.8C314.655 91.8667 311.455 95.1 307.388 97.5C303.388 99.8333 298.855 101 293.788 101ZM293.788 91.6C296.922 91.6 299.722 90.8333 302.188 89.3C304.655 87.7 306.588 85.5667 307.988 82.9C309.388 80.1667 310.055 77.1 309.988 73.7C310.055 70.2333 309.388 67.1667 307.988 64.5C306.588 61.7667 304.655 59.6333 302.188 58.1C299.722 56.5667 296.922 55.8 293.788 55.8C290.655 55.8 287.822 56.6 285.288 58.2C282.822 59.7333 280.888 61.8667 279.488 64.6C278.088 67.2667 277.422 70.3 277.488 73.7C277.422 77.1 278.088 80.1667 279.488 82.9C280.888 85.5667 282.822 87.7 285.288 89.3C287.822 90.8333 290.655 91.6 293.788 91.6Z" fill="#323232"/>
<path d="M329.62 43V31.08H325.7V29H335.82V31.08H331.78V43H329.62ZM338.483 43V29H340.603L345.703 37.3L344.683 37.28L349.843 29H351.843V43H349.683V37.26C349.683 36.06 349.71 34.98 349.763 34.02C349.83 33.06 349.937 32.1067 350.083 31.16L350.363 31.9L345.783 38.98H344.463L340.023 31.98L340.243 31.16C340.39 32.0533 340.49 32.9733 340.543 33.92C340.61 34.8533 340.643 35.9667 340.643 37.26V43H338.483Z" fill="#323232"/>
</svg>
